<svg width="2205" height="200" viewBox="0 0 2205 200" fill="none" xmlns="http://www.w3.org/2000/svg">
<g clip-path="url(#clip0_3450_9662)">
<path d="M190.236 103.156C221.317 107.175 252.398 122.179 252.398 150.313C252.398 176.571 228.016 200.953 145.759 200.953H0.000183105V5.3584H145.759C222.121 5.3584 246.771 29.7408 246.771 55.9987C246.771 84.1322 220.513 98.6009 190.236 102.62V103.156ZM94.0465 66.4483V84.1322H131.558C142.007 84.1322 145.759 80.1131 145.759 75.0223C145.759 69.9315 142.007 66.4483 131.29 66.4483H94.0465ZM134.773 139.863C147.634 139.863 151.117 136.38 151.117 131.289C151.117 125.931 147.366 122.179 135.309 122.179H94.0465V139.863H134.773Z" fill="black"/>
<path d="M516.042 200.953H416.101L408.867 180.322H348.313L341.078 200.953H241.137L318.31 5.3584H438.615L516.049 200.953H516.042ZM378.59 76.362L364.657 120.304H392.523L378.59 76.362Z" fill="black"/>
<path d="M609.827 130.754C611.166 137.453 616.525 143.347 639.836 143.347C663.146 143.347 667.433 139.06 667.433 135.041C667.433 131.29 664.218 127.271 632.334 125.395C526.23 120.304 505.331 99.1374 505.331 64.5733C505.331 30.0093 535.608 0.000244141 633.405 0.000244141C731.203 0.000244141 766.035 35.3681 768.714 75.2909H661.539C659.931 68.8604 654.572 62.9657 633.673 62.9657C612.774 62.9657 607.951 66.9848 607.951 71.0039C607.951 75.2909 611.434 78.7741 643.051 81.1855C753.174 86.5443 773.537 106.908 773.537 141.74C773.537 176.572 742.724 206.313 640.104 206.313C537.483 206.313 504.259 173.088 502.116 130.754H609.827Z" fill="black"/>
<path d="M787.738 200.953V5.3584H1008.51V66.7162H885.529V82.2567H1004.76V123.251H885.529V139.06H1010.12V200.953H787.731H787.738Z" fill="black"/>
<path d="M1057.13 98.0656C1057.13 42.6024 1097.36 0.000244141 1186.66 0.000244141C1275.97 0.000244141 1310.88 35.904 1315.69 94.5824H1214.75C1212.47 85.7405 1205.14 77.7023 1186.41 77.7023C1166.43 77.7023 1157.07 87.884 1157.07 102.085V104.228C1157.07 118.429 1166.43 128.611 1186.41 128.611C1205.14 128.611 1212.47 120.572 1214.75 111.73H1315.69C1310.88 170.409 1273.94 206.313 1186.66 206.313C1099.38 206.313 1057.13 163.704 1057.13 108.247V98.0656Z" fill="black"/>
<path d="M1579.34 200.947H1479.4L1472.16 180.315H1411.61L1404.38 200.947H1304.43L1381.6 5.35181H1501.91L1579.34 200.947ZM1441.89 76.3554L1427.95 120.297H1455.82L1441.89 76.3554Z" fill="black"/>
<path d="M1673.12 130.754C1674.46 137.453 1679.82 143.347 1703.13 143.347C1726.44 143.347 1730.73 139.06 1730.73 135.041C1730.73 131.29 1727.52 127.271 1695.63 125.395C1589.53 120.304 1568.63 99.1374 1568.63 64.5733C1568.63 30.0093 1598.91 0.000244141 1696.7 0.000244141C1794.5 0.000244141 1829.33 35.3681 1832.01 75.2909H1724.84C1723.23 68.8604 1717.87 62.9657 1696.97 62.9657C1676.07 62.9657 1671.25 66.9848 1671.25 71.0039C1671.25 75.2909 1674.73 78.7741 1706.35 81.1855C1816.47 86.5443 1836.83 106.908 1836.83 141.74C1836.83 176.571 1806.02 206.313 1703.4 206.313C1600.78 206.313 1567.56 173.088 1565.41 130.754H1673.12Z" fill="black"/>
<path d="M1851.04 200.947V5.35181H2071.81V66.7096H1948.83V82.2501H2068.06V123.245H1948.83V139.053H2073.42V200.947H1851.03H1851.04Z" fill="black"/>
<path d="M2094.05 173.646H2204.08V201.155H2094.05V173.646Z" fill="black"/>
</g>
<defs>
<clipPath id="clip0_3450_9662">
<rect width="2204.08" height="200" fill="white"/>
</clipPath>
</defs>
</svg>
